{"accessors" : [{"bufferView" : 0, "byteOffset" : 0, "componentType" : 5123, "count" : 288, "type" : "SCALAR", "max" : [287], "min" : [0]}, {"bufferView" : 1, "byteOffset" : 0, "componentType" : 5126, "count" : 288, "type" : "VEC3", "max" : [1.040992021560669, 1.040992021560669, 1.040992021560669], "min" : [-1.040992021560669, -1.040992021560669, -1.040992021560669], "name" : "POSITION"}, {"bufferView" : 1, "byteOffset" : 12, "componentType" : 5126, "count" : 288, "type" : "VEC2", "max" : [0.875, -0], "min" : [0.125, -1], "name" : "TEXCOORD_0"}, {"bufferView" : 1, "byteOffset" : 20, "componentType" : 5126, "count" : 288, "type" : "VEC3", "max" : [0.9390860199928284, 0.9390860199928284, 0.9390860199928284], "min" : [-0.9390860199928284, -0.9390860199928284, -0.9390860199928284], "name" : "NORMAL"}], "asset" : {"generator" : "Aspose.3D 23.9.0", "version" : "2.0"}, "buffers" : [{"uri" : "data:application/octet-stream;base64,", "byteLength" : 9800}], "bufferViews" : [{"buffer" : 0, "byteOffset" : 0, "byteLength" : 576, "target" : 34963}, {"buffer" : 0, "byteOffset" : 580, "byteLength" : 9216, "byteStride" : 32, "target" : 34962}], "meshes" : [{"primitives" : [{"attributes" : {"POSITION" : 1, "TEXCOORD_0" : 2, "NORMAL" : 3}, "indices" : 0, "mode" : 4}], "name" : ""}], "nodes" : [{"mesh" : 0, "name" : "Cube"}], "scene" : 0, "scenes" : [{"nodes" : [0]}]}